<svg xmlns="http://www.w3.org/2000/svg" xmlns:xlink="http://www.w3.org/1999/xlink" zoomAndPan="magnify" preserveAspectRatio="xMidYMid meet" version="1.0" viewBox="170.35 133.16 340.25 192.46"><defs><g/><clipPath id="f21cdd07cd"><path d="M 264.835938 133.164062 L 293 133.164062 L 293 162 L 264.835938 162 Z M 264.835938 133.164062 " clip-rule="nonzero"/></clipPath><clipPath id="3cca3eea7e"><path d="M 265 133.164062 L 298.550781 133.164062 L 298.550781 177 L 265 177 Z M 265 133.164062 " clip-rule="nonzero"/></clipPath><clipPath id="ddf7bd0d59"><path d="M 275 175 L 289 175 L 289 179.613281 L 275 179.613281 Z M 275 175 " clip-rule="nonzero"/></clipPath></defs><g fill="#5ce1e6" fill-opacity="1"><g transform="translate(163.77618, 268.544469)"><g><path d="M 42.726562 -61.910156 C 36.433594 -64.640625 31.453125 -62.042969 28.804688 -55.941406 L 7.785156 -7.5 C 5.222656 -1.585938 6.640625 4.015625 12.9375 6.746094 C 19.230469 9.476562 24.292969 6.6875 26.855469 0.777344 L 47.875 -47.664062 C 50.523438 -53.765625 49.019531 -59.179688 42.726562 -61.910156 Z M 42.726562 -61.910156 "/></g></g></g><path stroke-linecap="butt" transform="matrix(0.809226, 0, 0, 0.809226, 179.727289, 154.073612)" fill="none" stroke-linejoin="miter" d="M 53.445248 42.981646 C 53.155619 42.981646 53.010805 42.981646 52.716349 42.981646 C 46.445888 42.981646 40.759512 46.698547 38.244569 52.534565 L 3.28156 126.906383 C 2.079601 129.276511 1.495517 131.680429 1.495517 134.050557 C 1.495517 143.019392 8.967937 150.496639 17.936772 150.496639 C 24.791317 150.496639 30.477693 147.503809 32.847821 140.943719 L 36.892969 129.604757 L 69.307245 129.604757 L 73.168961 140.943719 C 75.577706 147.503809 81.225465 150.496639 88.118628 150.496639 C 97.048845 150.496639 104.526093 143.019392 104.526093 134.050557 C 104.526093 131.680429 103.942008 129.276511 102.735222 126.906383 L 67.81083 52.534565 C 65.112456 46.848189 59.715709 43.271274 53.445248 42.981646 Z M 60.483225 104.194667 L 45.683199 104.194667 L 53.155619 83.013156 Z M 60.483225 104.194667 " stroke="#000000" stroke-width="2.706624" stroke-opacity="1" stroke-miterlimit="4"/><g fill="#ffde59" fill-opacity="1"><g transform="translate(425.614449, 288.825012)"><g><path d="M -73.855469 -14.5625 C -73.855469 -7.699219 -69.488281 -4.160156 -62.832031 -4.160156 L -9.984375 -4.160156 C -3.535156 -4.160156 1.039062 -7.699219 1.039062 -14.5625 C 1.039062 -21.429688 -3.535156 -24.964844 -9.984375 -24.964844 L -62.832031 -24.964844 C -69.488281 -24.964844 -73.855469 -21.429688 -73.855469 -14.5625 Z M -73.855469 -14.5625 "/></g></g></g><g fill="#ff8bd2" fill-opacity="1"><g transform="translate(490.96066, 249.596487)"><g><path d="M -18.644531 -72.933594 C -24.84375 -69.976562 -26.15625 -64.511719 -23.289062 -58.503906 L -0.542969 -10.804688 C 2.234375 -4.984375 7.394531 -2.375 13.59375 -5.328125 C 19.789062 -8.285156 21.011719 -13.9375 18.234375 -19.761719 L -4.511719 -67.457031 C -7.375 -73.46875 -12.449219 -75.886719 -18.644531 -72.933594 Z M -18.644531 -72.933594 "/></g></g></g><path stroke-linecap="butt" transform="matrix(0.809226, 0, 0, 0.809226, 264.836031, 154.073612)" fill="none" stroke-linejoin="miter" d="M 20.891767 42.981646 C 11.044392 42.981646 5.980717 49.252107 5.980717 58.805026 L 5.980717 134.673259 C 5.980717 143.931722 11.044392 150.496639 20.891767 150.496639 C 30.768105 150.496639 35.836607 143.931722 35.836607 134.673259 L 35.836607 58.805026 C 35.836607 49.252107 30.768105 42.981646 20.891767 42.981646 Z M 45.09507 104.194667 C 45.09507 111.377458 51.071075 117.353463 58.253867 117.353463 L 99.15909 117.353463 C 106.303265 117.353463 112.284097 111.377458 112.284097 104.194667 C 112.284097 97.045666 106.303265 91.069661 99.15909 91.069661 L 58.253867 91.069661 C 51.071075 91.069661 45.09507 97.045666 45.09507 104.194667 Z M 137.964506 44.47806 C 126.919999 44.47806 121.557042 51.332606 121.557042 61.793028 L 121.557042 131.680429 C 121.557042 142.145678 126.919999 149.000224 137.964506 149.000224 L 189.663226 149.000224 C 196.517771 149.000224 202.204148 143.313847 202.204148 136.459302 C 202.204148 129.604757 196.517771 123.623924 189.663226 123.623924 L 154.405761 123.623924 L 154.405761 109.591415 L 174.713559 109.591415 C 181.568104 109.591415 187.254481 103.610583 187.254481 96.722247 C 187.254481 89.867702 181.568104 83.88687 174.713559 83.88687 L 154.405761 83.88687 L 154.405761 69.849533 L 189.663226 69.849533 C 196.517771 69.849533 202.204148 63.873528 202.204148 57.018982 C 202.204148 50.12582 196.517771 44.47806 189.663226 44.47806 Z M 239.242829 44.47806 L 228.159704 44.47806 C 217.11037 44.47806 211.75224 51.332606 211.75224 61.793028 L 211.75224 133.176844 C 211.75224 143.642093 217.11037 150.496639 228.159704 150.496639 C 239.242829 150.496639 244.600959 143.642093 244.600959 133.176844 L 244.600959 118.521632 L 266.405172 118.521632 C 287.002598 118.521632 299.833148 105.396626 299.833148 80.898867 C 299.833148 56.396281 287.002598 44.47806 263.996426 44.47806 Z M 244.600959 89.283617 L 244.600959 73.749866 L 258.927925 73.749866 C 263.706798 73.749866 266.984429 76.742695 266.984429 81.516741 C 266.984429 86.290788 263.706798 89.283617 258.927925 89.283617 Z M 244.600959 89.283617 " stroke="#000000" stroke-width="2.706624" stroke-opacity="1" stroke-miterlimit="4"/><g fill="#000000" fill-opacity="1"><g transform="translate(211.370115, 320.850494)"><g><path d="M 7.066406 -16.078125 C 3.398438 -16.078125 1.539062 -14.175781 1.539062 -11.4375 C 1.539062 -8.785156 2.832031 -7.542969 5.117188 -6.90625 L 7.925781 -6.160156 C 9.375 -5.796875 9.804688 -5.164062 9.804688 -4.394531 C 9.804688 -3.328125 9.035156 -2.535156 7.222656 -2.535156 C 5.457031 -2.535156 4.234375 -2.808594 3.035156 -3.578125 C 2.808594 -3.738281 2.535156 -3.804688 2.308594 -3.804688 C 1.496094 -3.804688 0.949219 -3.238281 0.949219 -2.445312 C 0.949219 -2.128906 1.0625 -1.789062 1.335938 -1.515625 C 2.648438 -0.339844 4.621094 0.226562 7.292969 0.226562 C 11.234375 0.226562 13.089844 -1.835938 13.089844 -4.550781 C 13.089844 -7.019531 12.003906 -8.265625 9.511719 -8.945312 L 6.703125 -9.691406 C 5.433594 -10.007812 4.824219 -10.484375 4.824219 -11.550781 C 4.824219 -12.636719 5.707031 -13.316406 7.335938 -13.316406 C 8.46875 -13.316406 9.464844 -12.953125 10.371094 -12.273438 C 10.597656 -12.09375 10.871094 -12.046875 11.140625 -12.046875 C 12.046875 -12.046875 12.5 -12.613281 12.5 -13.40625 C 12.5 -13.722656 12.410156 -13.996094 12.183594 -14.265625 C 11.140625 -15.308594 9.082031 -16.078125 7.066406 -16.078125 Z M 7.066406 -16.078125 "/></g></g></g><g fill="#000000" fill-opacity="1"><g transform="translate(225.320297, 320.850494)"><g><path d="M 2.851562 -16.78125 C 1.789062 -16.78125 1.0625 -16.035156 1.0625 -14.96875 C 1.0625 -13.90625 1.789062 -13.15625 2.851562 -13.15625 C 3.917969 -13.15625 4.6875 -13.90625 4.6875 -14.96875 C 4.6875 -16.035156 3.917969 -16.78125 2.851562 -16.78125 Z M 2.851562 -11.550781 C 1.855469 -11.550781 1.359375 -10.914062 1.359375 -9.964844 L 1.359375 -1.359375 C 1.359375 -0.429688 1.855469 0.226562 2.851562 0.226562 C 3.851562 0.226562 4.371094 -0.429688 4.371094 -1.359375 L 4.371094 -9.964844 C 4.371094 -10.914062 3.851562 -11.550781 2.851562 -11.550781 Z M 2.851562 -11.550781 "/></g></g></g><g fill="#000000" fill-opacity="1"><g transform="translate(231.027198, 320.850494)"><g><path d="M 2.695312 -11.550781 C 1.835938 -11.550781 1.382812 -11.007812 1.382812 -10.167969 L 1.382812 -1.359375 C 1.382812 -0.429688 1.855469 0.226562 2.851562 0.226562 C 3.851562 0.226562 4.394531 -0.429688 4.394531 -1.359375 L 4.394531 -7.292969 C 4.394531 -8.332031 4.9375 -8.921875 5.886719 -8.921875 C 6.839844 -8.921875 7.382812 -8.332031 7.382812 -7.292969 L 7.382812 -1.359375 C 7.382812 -0.429688 7.925781 0.226562 8.921875 0.226562 C 9.917969 0.226562 10.394531 -0.429688 10.394531 -1.359375 L 10.394531 -7.292969 C 10.394531 -8.332031 10.9375 -8.921875 11.890625 -8.921875 C 12.839844 -8.921875 13.40625 -8.332031 13.40625 -7.292969 L 13.40625 -1.359375 C 13.40625 -0.429688 13.90625 0.226562 14.902344 0.226562 C 15.898438 0.226562 16.417969 -0.429688 16.417969 -1.359375 L 16.417969 -8.039062 C 16.417969 -10.28125 15.171875 -11.550781 13.023438 -11.550781 C 11.59375 -11.550781 10.597656 -10.894531 10.054688 -9.804688 C 9.558594 -10.9375 8.515625 -11.550781 7.019531 -11.550781 C 5.570312 -11.550781 4.574219 -10.871094 4.03125 -9.761719 L 4.03125 -10.167969 C 4.03125 -11.007812 3.554688 -11.550781 2.695312 -11.550781 Z M 2.695312 -11.550781 "/></g></g></g><g fill="#000000" fill-opacity="1"><g transform="translate(248.781985, 320.850494)"><g><path d="M 2.695312 -11.550781 C 1.835938 -11.550781 1.382812 -11.007812 1.382812 -10.167969 L 1.382812 3.171875 C 1.382812 4.097656 1.855469 4.753906 2.851562 4.753906 C 3.851562 4.753906 4.394531 4.097656 4.394531 3.171875 L 4.394531 -1.269531 C 5.140625 -0.292969 6.25 0.226562 7.65625 0.226562 C 10.53125 0.226562 12.136719 -1.949219 12.136719 -5.660156 C 12.136719 -9.375 10.53125 -11.550781 7.65625 -11.550781 C 6 -11.550781 4.777344 -10.824219 4.03125 -9.511719 L 4.03125 -10.167969 C 4.03125 -11.007812 3.554688 -11.550781 2.695312 -11.550781 Z M 4.394531 -5.660156 C 4.394531 -7.789062 5.207031 -8.921875 6.75 -8.921875 C 8.289062 -8.921875 9.148438 -7.789062 9.148438 -5.660156 C 9.148438 -3.53125 8.289062 -2.402344 6.75 -2.402344 C 5.207031 -2.402344 4.394531 -3.53125 4.394531 -5.660156 Z M 4.394531 -5.660156 "/></g></g></g><g fill="#000000" fill-opacity="1"><g transform="translate(261.871612, 320.850494)"><g><path d="M 2.851562 -16.078125 C 1.855469 -16.078125 1.382812 -15.445312 1.382812 -14.492188 L 1.382812 -1.359375 C 1.382812 -0.429688 1.855469 0.226562 2.851562 0.226562 C 3.851562 0.226562 4.394531 -0.429688 4.394531 -1.359375 L 4.394531 -14.492188 C 4.394531 -15.445312 3.851562 -16.078125 2.851562 -16.078125 Z M 2.851562 -16.078125 "/></g></g></g><g fill="#000000" fill-opacity="1"><g transform="translate(267.578514, 320.850494)"><g><path d="M 2.851562 -16.78125 C 1.789062 -16.78125 1.0625 -16.035156 1.0625 -14.96875 C 1.0625 -13.90625 1.789062 -13.15625 2.851562 -13.15625 C 3.917969 -13.15625 4.6875 -13.90625 4.6875 -14.96875 C 4.6875 -16.035156 3.917969 -16.78125 2.851562 -16.78125 Z M 2.851562 -11.550781 C 1.855469 -11.550781 1.359375 -10.914062 1.359375 -9.964844 L 1.359375 -1.359375 C 1.359375 -0.429688 1.855469 0.226562 2.851562 0.226562 C 3.851562 0.226562 4.371094 -0.429688 4.371094 -1.359375 L 4.371094 -9.964844 C 4.371094 -10.914062 3.851562 -11.550781 2.851562 -11.550781 Z M 2.851562 -11.550781 "/></g></g></g><g fill="#000000" fill-opacity="1"><g transform="translate(273.285415, 320.850494)"><g><path d="M 5.886719 -1.359375 L 5.886719 -9.035156 L 7.609375 -9.035156 C 8.332031 -9.035156 8.808594 -9.398438 8.808594 -10.167969 C 8.808594 -10.9375 8.332031 -11.324219 7.609375 -11.324219 L 5.886719 -11.324219 L 5.886719 -12.09375 C 5.886719 -13.136719 6.429688 -13.792969 7.429688 -13.792969 C 8.199219 -13.792969 8.558594 -13.40625 8.898438 -13.023438 C 9.125 -12.839844 9.398438 -12.703125 9.691406 -12.703125 C 10.304688 -12.703125 10.847656 -13.179688 10.847656 -13.859375 C 10.847656 -14.152344 10.734375 -14.425781 10.554688 -14.605469 C 9.804688 -15.378906 8.695312 -16.078125 7.203125 -16.078125 C 4.394531 -16.078125 2.898438 -14.472656 2.898438 -11.664062 L 2.898438 -11.324219 L 1.585938 -11.324219 C 0.859375 -11.324219 0.40625 -10.9375 0.40625 -10.167969 C 0.40625 -9.398438 0.859375 -9.035156 1.585938 -9.035156 L 2.898438 -9.035156 L 2.898438 -1.359375 C 2.898438 -0.429688 3.398438 0.226562 4.394531 0.226562 C 5.390625 0.226562 5.886719 -0.429688 5.886719 -1.359375 Z M 5.886719 -1.359375 "/></g></g></g><g fill="#000000" fill-opacity="1"><g transform="translate(284.472747, 320.850494)"><g><path d="M 1.855469 -11.550781 C 1.042969 -11.550781 0.40625 -10.871094 0.40625 -10.054688 C 0.40625 -9.785156 0.476562 -9.558594 0.589844 -9.308594 L 4.347656 -1.246094 L 2.515625 2.582031 C 2.402344 2.832031 2.308594 3.011719 2.308594 3.285156 C 2.308594 4.097656 2.988281 4.777344 3.804688 4.777344 C 4.371094 4.777344 4.867188 4.484375 5.140625 3.984375 L 11.574219 -9.308594 C 11.6875 -9.558594 11.753906 -9.785156 11.753906 -10.054688 C 11.753906 -10.871094 11.050781 -11.550781 10.234375 -11.550781 C 9.601562 -11.550781 9.148438 -11.253906 8.921875 -10.734375 L 6.070312 -3.757812 L 3.214844 -10.734375 C 2.988281 -11.253906 2.492188 -11.550781 1.855469 -11.550781 Z M 1.855469 -11.550781 "/></g></g></g><g fill="#000000" fill-opacity="1"><g transform="translate(296.56593, 320.850494)"><g><path d="M 2.851562 -16.78125 C 1.789062 -16.78125 1.0625 -16.035156 1.0625 -14.96875 C 1.0625 -13.90625 1.789062 -13.15625 2.851562 -13.15625 C 3.917969 -13.15625 4.6875 -13.90625 4.6875 -14.96875 C 4.6875 -16.035156 3.917969 -16.78125 2.851562 -16.78125 Z M 2.851562 -11.550781 C 1.855469 -11.550781 1.359375 -10.914062 1.359375 -9.964844 L 1.359375 -1.359375 C 1.359375 -0.429688 1.855469 0.226562 2.851562 0.226562 C 3.851562 0.226562 4.371094 -0.429688 4.371094 -1.359375 L 4.371094 -9.964844 C 4.371094 -10.914062 3.851562 -11.550781 2.851562 -11.550781 Z M 2.851562 -11.550781 "/></g></g></g><g fill="#000000" fill-opacity="1"><g transform="translate(302.272831, 320.850494)"><g><path d="M 2.695312 -11.550781 C 1.835938 -11.550781 1.382812 -11.007812 1.382812 -10.167969 L 1.382812 -1.359375 C 1.382812 -0.429688 1.855469 0.226562 2.851562 0.226562 C 3.851562 0.226562 4.394531 -0.429688 4.394531 -1.359375 L 4.394531 -6.679688 C 4.394531 -8.085938 5.164062 -8.921875 6.476562 -8.921875 C 7.789062 -8.921875 8.582031 -8.085938 8.582031 -6.679688 L 8.582031 -1.359375 C 8.582031 -0.429688 9.082031 0.226562 10.078125 0.226562 C 11.074219 0.226562 11.59375 -0.429688 11.59375 -1.359375 L 11.59375 -7.382812 C 11.59375 -10.054688 10.144531 -11.550781 7.609375 -11.550781 C 5.867188 -11.550781 4.664062 -10.710938 4.03125 -9.332031 L 4.03125 -10.167969 C 4.03125 -11.007812 3.554688 -11.550781 2.695312 -11.550781 Z M 2.695312 -11.550781 "/></g></g></g><g fill="#000000" fill-opacity="1"><g transform="translate(315.135989, 320.850494)"><g><path d="M 10.914062 -12.589844 C 10.6875 -12.703125 10.460938 -12.773438 10.234375 -12.773438 C 9.785156 -12.773438 9.375 -12.546875 9.125 -12.136719 L 8.605469 -11.253906 C 7.996094 -11.4375 7.335938 -11.550781 6.613281 -11.550781 C 3.035156 -11.550781 0.949219 -9.195312 0.949219 -5.660156 C 0.949219 -2.128906 3.035156 0.226562 6.613281 0.226562 C 7.269531 0.226562 7.882812 0.160156 8.425781 0 C 8.652344 0.226562 8.742188 0.519531 8.742188 0.859375 C 8.742188 1.722656 8.109375 2.308594 6.476562 2.308594 C 5.367188 2.308594 4.371094 1.925781 3.441406 1.246094 C 3.238281 1.132812 3.078125 1.085938 2.851562 1.085938 C 2.0625 1.085938 1.539062 1.675781 1.539062 2.378906 C 1.539062 2.535156 1.585938 2.761719 1.628906 2.851562 C 2.355469 4.03125 4.234375 4.753906 6.523438 4.753906 C 10.234375 4.753906 11.730469 3.191406 11.730469 1.019531 C 11.730469 0 11.414062 -0.792969 10.78125 -1.359375 C 11.777344 -2.402344 12.320312 -3.871094 12.320312 -5.660156 C 12.320312 -7.382812 11.820312 -8.855469 10.871094 -9.875 L 11.414062 -10.800781 C 11.527344 -11.007812 11.59375 -11.234375 11.59375 -11.460938 C 11.59375 -11.910156 11.347656 -12.34375 10.914062 -12.589844 Z M 6.613281 -8.992188 C 8.3125 -8.992188 9.285156 -7.746094 9.285156 -5.660156 C 9.285156 -3.578125 8.3125 -2.332031 6.613281 -2.332031 C 4.914062 -2.332031 3.941406 -3.578125 3.941406 -5.660156 C 3.941406 -7.746094 4.914062 -8.992188 6.613281 -8.992188 Z M 6.613281 -8.992188 "/></g></g></g><g fill="#000000" fill-opacity="1"><g transform="translate(328.542666, 320.850494)"><g/></g></g><g fill="#000000" fill-opacity="1"><g transform="translate(334.747775, 320.850494)"><g><path d="M 1.855469 -15.851562 C 1.042969 -15.851562 0.40625 -15.195312 0.40625 -14.378906 C 0.40625 -13.566406 1.042969 -12.910156 1.855469 -12.910156 L 3.578125 -12.910156 L 3.578125 -2.945312 L 1.855469 -2.945312 C 1.042969 -2.945312 0.40625 -2.289062 0.40625 -1.472656 C 0.40625 -0.65625 1.042969 0 1.855469 0 L 8.582031 0 C 9.398438 0 10.054688 -0.65625 10.054688 -1.472656 C 10.054688 -2.289062 9.398438 -2.945312 8.582031 -2.945312 L 6.839844 -2.945312 L 6.839844 -12.910156 L 8.582031 -12.910156 C 9.398438 -12.910156 10.054688 -13.566406 10.054688 -14.378906 C 10.054688 -15.195312 9.398438 -15.851562 8.582031 -15.851562 Z M 1.855469 -15.851562 "/></g></g></g><g fill="#000000" fill-opacity="1"><g transform="translate(345.165118, 320.850494)"><g><path d="M 3.035156 -15.851562 C 1.949219 -15.851562 1.382812 -15.171875 1.382812 -14.132812 L 1.382812 -1.722656 C 1.382812 -0.679688 1.949219 0 3.035156 0 L 11.140625 0 C 11.867188 0 12.5 -0.632812 12.5 -1.359375 C 12.5 -2.082031 11.867188 -2.71875 11.140625 -2.71875 L 4.664062 -2.71875 L 4.664062 -6.566406 L 8.878906 -6.566406 C 9.601562 -6.566406 10.234375 -7.203125 10.234375 -7.925781 C 10.234375 -8.652344 9.601562 -9.285156 8.878906 -9.285156 L 4.664062 -9.285156 L 4.664062 -13.136719 L 11.140625 -13.136719 C 11.867188 -13.136719 12.5 -13.769531 12.5 -14.492188 C 12.5 -15.21875 11.867188 -15.851562 11.140625 -15.851562 Z M 3.035156 -15.851562 "/></g></g></g><g fill="#000000" fill-opacity="1"><g transform="translate(358.345325, 320.850494)"><g><path d="M 4.097656 -15.851562 L 3.011719 -15.851562 C 1.925781 -15.851562 1.382812 -15.171875 1.382812 -14.132812 L 1.382812 -1.496094 C 1.382812 -0.453125 1.925781 0.226562 3.011719 0.226562 C 4.097656 0.226562 4.664062 -0.453125 4.664062 -1.496094 L 4.664062 -4.621094 L 8.425781 -4.621094 C 11.707031 -4.621094 13.632812 -6.566406 13.632812 -10.328125 C 13.632812 -14.039062 11.707031 -15.851562 8.199219 -15.851562 Z M 4.664062 -7.5625 L 4.664062 -12.910156 L 7.699219 -12.910156 C 9.375 -12.910156 10.328125 -12.023438 10.328125 -10.234375 C 10.328125 -8.46875 9.375 -7.5625 7.699219 -7.5625 Z M 4.664062 -7.5625 "/></g></g></g><g fill="#000000" fill-opacity="1"><g transform="translate(372.839026, 320.850494)"><g><path d="M 5.570312 -11.550781 C 2.671875 -11.550781 1.15625 -10.167969 1.15625 -8.015625 C 1.15625 -6.070312 2.175781 -4.914062 4.304688 -4.621094 L 6.136719 -4.304688 C 6.929688 -4.167969 7.246094 -3.804688 7.246094 -3.261719 C 7.246094 -2.628906 6.769531 -2.21875 5.59375 -2.21875 C 4.257812 -2.21875 3.148438 -2.71875 2.242188 -3.125 C 2.152344 -3.171875 2.0625 -3.171875 1.925781 -3.171875 C 1.132812 -3.171875 0.613281 -2.648438 0.613281 -1.855469 C 0.613281 -1.3125 0.839844 -1.019531 1.289062 -0.769531 C 2.265625 -0.226562 3.828125 0.226562 5.660156 0.226562 C 8.742188 0.226562 10.234375 -1.15625 10.234375 -3.304688 C 10.234375 -5.300781 9.285156 -6.410156 7.066406 -6.703125 L 5.253906 -7.042969 C 4.550781 -7.15625 4.167969 -7.382812 4.167969 -8.0625 C 4.167969 -8.695312 4.664062 -9.105469 5.570312 -9.105469 C 6.476562 -9.105469 7.246094 -8.695312 7.925781 -8.242188 C 8.0625 -8.199219 8.21875 -8.152344 8.378906 -8.152344 C 9.171875 -8.152344 9.691406 -8.671875 9.691406 -9.464844 C 9.691406 -9.828125 9.511719 -10.101562 9.238281 -10.371094 C 8.582031 -10.914062 7.40625 -11.550781 5.570312 -11.550781 Z M 5.570312 -11.550781 "/></g></g></g><g fill="#000000" fill-opacity="1"><g transform="translate(383.981061, 320.850494)"><g/></g></g><g fill="#000000" fill-opacity="1"><g transform="translate(390.18617, 320.850494)"><g><path d="M 1.878906 -11.550781 C 0.996094 -11.550781 0.40625 -11.007812 0.40625 -10.054688 C 0.40625 -9.828125 0.40625 -9.648438 0.5 -9.464844 L 3.738281 -0.679688 C 3.964844 -0.136719 4.527344 0.226562 5.117188 0.226562 C 5.84375 0.226562 6.339844 -0.0234375 6.5 -0.679688 L 8.332031 -7.429688 L 10.191406 -0.679688 C 10.347656 -0.0234375 10.824219 0.226562 11.550781 0.226562 C 12.136719 0.226562 12.683594 -0.136719 12.910156 -0.679688 L 16.148438 -9.464844 C 16.214844 -9.648438 16.261719 -9.828125 16.261719 -10.054688 C 16.261719 -10.9375 15.648438 -11.550781 14.765625 -11.550781 C 13.949219 -11.550781 13.496094 -11.097656 13.363281 -10.507812 L 11.550781 -3.871094 L 9.785156 -10.460938 C 9.625 -11.121094 9.058594 -11.550781 8.332031 -11.550781 C 7.609375 -11.550781 7.066406 -11.097656 6.90625 -10.460938 L 5.117188 -3.871094 L 3.285156 -10.507812 C 3.148438 -11.050781 2.695312 -11.550781 1.878906 -11.550781 Z M 1.878906 -11.550781 "/></g></g></g><g fill="#000000" fill-opacity="1"><g transform="translate(406.808637, 320.850494)"><g><path d="M 2.851562 -16.78125 C 1.789062 -16.78125 1.0625 -16.035156 1.0625 -14.96875 C 1.0625 -13.90625 1.789062 -13.15625 2.851562 -13.15625 C 3.917969 -13.15625 4.6875 -13.90625 4.6875 -14.96875 C 4.6875 -16.035156 3.917969 -16.78125 2.851562 -16.78125 Z M 2.851562 -11.550781 C 1.855469 -11.550781 1.359375 -10.914062 1.359375 -9.964844 L 1.359375 -1.359375 C 1.359375 -0.429688 1.855469 0.226562 2.851562 0.226562 C 3.851562 0.226562 4.371094 -0.429688 4.371094 -1.359375 L 4.371094 -9.964844 C 4.371094 -10.914062 3.851562 -11.550781 2.851562 -11.550781 Z M 2.851562 -11.550781 "/></g></g></g><g fill="#000000" fill-opacity="1"><g transform="translate(412.515539, 320.850494)"><g><path d="M 5.886719 -4.210938 L 5.886719 -9.035156 L 7.609375 -9.035156 C 8.332031 -9.035156 8.808594 -9.398438 8.808594 -10.167969 C 8.808594 -10.9375 8.332031 -11.324219 7.609375 -11.324219 L 5.886719 -11.324219 L 5.886719 -13.382812 C 5.886719 -14.335938 5.390625 -14.945312 4.394531 -14.945312 C 3.398438 -14.945312 2.898438 -14.335938 2.898438 -13.382812 L 2.898438 -11.324219 L 1.585938 -11.324219 C 0.859375 -11.324219 0.40625 -10.9375 0.40625 -10.167969 C 0.40625 -9.398438 0.859375 -9.035156 1.585938 -9.035156 L 2.898438 -9.035156 L 2.898438 -4.121094 C 2.898438 -1.269531 4.574219 0.226562 7.519531 0.226562 C 8.652344 0.226562 9.148438 -0.363281 9.148438 -1.132812 C 9.148438 -1.902344 8.628906 -2.402344 7.835938 -2.402344 C 6.679688 -2.402344 5.886719 -3.078125 5.886719 -4.210938 Z M 5.886719 -4.210938 "/></g></g></g><g fill="#000000" fill-opacity="1"><g transform="translate(421.981734, 320.850494)"><g><path d="M 2.851562 -16.078125 C 1.855469 -16.078125 1.382812 -15.445312 1.382812 -14.492188 L 1.382812 -1.359375 C 1.382812 -0.429688 1.855469 0.226562 2.851562 0.226562 C 3.851562 0.226562 4.394531 -0.429688 4.394531 -1.359375 L 4.394531 -6.769531 C 4.394531 -8.175781 5.164062 -9.011719 6.476562 -9.011719 C 7.789062 -9.011719 8.582031 -8.175781 8.582031 -6.769531 L 8.582031 -1.359375 C 8.582031 -0.429688 9.082031 0.226562 10.078125 0.226562 C 11.074219 0.226562 11.59375 -0.429688 11.59375 -1.359375 L 11.59375 -7.429688 C 11.59375 -10.101562 10.144531 -11.59375 7.609375 -11.59375 C 6.160156 -11.59375 5.074219 -11.007812 4.394531 -10.007812 L 4.394531 -14.492188 C 4.394531 -15.445312 3.851562 -16.078125 2.851562 -16.078125 Z M 2.851562 -16.078125 "/></g></g></g><g fill="#000000" fill-opacity="1"><g transform="translate(434.844892, 320.850494)"><g/></g></g><g fill="#000000" fill-opacity="1"><g transform="translate(441.050001, 320.850494)"><g><path d="M 7.699219 -16.078125 C 7.675781 -16.078125 7.65625 -16.078125 7.65625 -16.078125 C 7.019531 -16.078125 6.429688 -15.695312 6.160156 -15.128906 L 0.566406 -2.128906 C 0.453125 -1.878906 0.40625 -1.652344 0.40625 -1.402344 C 0.40625 -0.5 1.132812 0.226562 2.039062 0.226562 C 2.71875 0.226562 3.285156 -0.0664062 3.53125 -0.726562 L 4.664062 -3.804688 L 10.644531 -3.804688 L 11.777344 -0.726562 C 12.023438 -0.0664062 12.589844 0.226562 13.269531 0.226562 C 14.175781 0.226562 14.925781 -0.5 14.925781 -1.402344 C 14.925781 -1.652344 14.855469 -1.878906 14.742188 -2.128906 L 9.148438 -15.128906 C 8.878906 -15.695312 8.332031 -16.054688 7.699219 -16.078125 Z M 9.714844 -6.363281 L 5.617188 -6.363281 L 7.675781 -11.957031 Z M 9.714844 -6.363281 "/></g></g></g><g fill="#000000" fill-opacity="1"><g transform="translate(456.313676, 320.850494)"><g><path d="M 1.855469 -15.851562 C 1.042969 -15.851562 0.40625 -15.195312 0.40625 -14.378906 C 0.40625 -13.566406 1.042969 -12.910156 1.855469 -12.910156 L 3.578125 -12.910156 L 3.578125 -2.945312 L 1.855469 -2.945312 C 1.042969 -2.945312 0.40625 -2.289062 0.40625 -1.472656 C 0.40625 -0.65625 1.042969 0 1.855469 0 L 8.582031 0 C 9.398438 0 10.054688 -0.65625 10.054688 -1.472656 C 10.054688 -2.289062 9.398438 -2.945312 8.582031 -2.945312 L 6.839844 -2.945312 L 6.839844 -12.910156 L 8.582031 -12.910156 C 9.398438 -12.910156 10.054688 -13.566406 10.054688 -14.378906 C 10.054688 -15.195312 9.398438 -15.851562 8.582031 -15.851562 Z M 1.855469 -15.851562 "/></g></g></g><g clip-path="url(#f21cdd07cd)"><path fill="#ffbd59" d="M 292.917969 147.183594 C 292.917969 148.105469 292.828125 149.015625 292.648438 149.921875 C 292.46875 150.824219 292.203125 151.699219 291.847656 152.550781 C 291.496094 153.402344 291.066406 154.207031 290.554688 154.972656 C 290.042969 155.738281 289.460938 156.449219 288.808594 157.097656 C 288.160156 157.75 287.449219 158.332031 286.683594 158.84375 C 285.921875 159.355469 285.113281 159.785156 284.261719 160.136719 C 283.410156 160.488281 282.535156 160.757812 281.632812 160.9375 C 280.726562 161.113281 279.816406 161.203125 278.894531 161.203125 C 277.976562 161.203125 277.0625 161.113281 276.160156 160.9375 C 275.257812 160.757812 274.382812 160.488281 273.53125 160.136719 C 272.679688 159.785156 271.871094 159.355469 271.105469 158.84375 C 270.339844 158.332031 269.632812 157.75 268.980469 157.097656 C 268.332031 156.449219 267.75 155.738281 267.238281 154.972656 C 266.726562 154.207031 266.296875 153.402344 265.941406 152.550781 C 265.589844 151.699219 265.324219 150.824219 265.144531 149.921875 C 264.964844 149.015625 264.875 148.105469 264.875 147.183594 C 264.875 146.265625 264.964844 145.351562 265.144531 144.449219 C 265.324219 143.546875 265.589844 142.671875 265.941406 141.820312 C 266.296875 140.96875 266.726562 140.160156 267.238281 139.394531 C 267.75 138.628906 268.332031 137.921875 268.980469 137.269531 C 269.632812 136.621094 270.339844 136.039062 271.105469 135.527344 C 271.871094 135.015625 272.679688 134.585938 273.53125 134.230469 C 274.382812 133.878906 275.257812 133.613281 276.160156 133.433594 C 277.0625 133.253906 277.976562 133.164062 278.894531 133.164062 C 279.816406 133.164062 280.726562 133.253906 281.632812 133.433594 C 282.535156 133.613281 283.410156 133.878906 284.261719 134.230469 C 285.113281 134.585938 285.921875 135.015625 286.683594 135.527344 C 287.449219 136.039062 288.160156 136.621094 288.808594 137.269531 C 289.460938 137.921875 290.042969 138.628906 290.554688 139.394531 C 291.066406 140.160156 291.496094 140.96875 291.847656 141.820312 C 292.203125 142.671875 292.46875 143.546875 292.648438 144.449219 C 292.828125 145.351562 292.917969 146.265625 292.917969 147.183594 Z M 292.917969 147.183594 " fill-opacity="1" fill-rule="nonzero"/></g><g clip-path="url(#3cca3eea7e)"><path fill="#04182d" d="M 289.910156 176.710938 L 274.140625 176.710938 C 273.871094 176.710938 273.652344 176.496094 273.652344 176.226562 L 273.652344 167.222656 C 273.652344 165.667969 272.9375 164.207031 271.683594 163.214844 C 267.195312 159.648438 264.878906 154.097656 265.488281 148.367188 C 266.328125 140.496094 272.925781 134.144531 280.84375 133.597656 C 285.511719 133.273438 289.964844 134.847656 293.371094 138.027344 C 296.730469 141.160156 298.660156 145.59375 298.660156 150.1875 C 298.660156 155.296875 296.359375 160.050781 292.347656 163.226562 C 291.109375 164.210938 290.398438 165.664062 290.398438 167.21875 L 290.398438 176.226562 C 290.398438 176.496094 290.179688 176.710938 289.910156 176.710938 Z M 274.625 175.742188 L 289.425781 175.742188 L 289.425781 167.21875 C 289.425781 165.367188 290.273438 163.636719 291.746094 162.46875 C 295.523438 159.472656 297.6875 155 297.6875 150.1875 C 297.6875 145.863281 295.875 141.6875 292.710938 138.734375 C 289.5 135.742188 285.316406 134.261719 280.910156 134.566406 C 273.457031 135.082031 267.242188 141.058594 266.453125 148.472656 C 265.878906 153.867188 268.0625 159.09375 272.289062 162.453125 C 273.773438 163.632812 274.625 165.371094 274.625 167.222656 Z M 274.625 175.742188 " fill-opacity="1" fill-rule="nonzero"/></g><g clip-path="url(#ddf7bd0d59)"><path fill="#04182d" d="M 281.90625 179.496094 C 278.464844 179.496094 275.765625 178.058594 275.765625 176.226562 C 275.765625 175.957031 275.984375 175.742188 276.25 175.742188 C 276.519531 175.742188 276.734375 175.957031 276.734375 176.226562 C 276.734375 177.316406 278.859375 178.527344 281.90625 178.527344 C 284.957031 178.527344 287.078125 177.316406 287.078125 176.226562 C 287.078125 175.957031 287.296875 175.742188 287.566406 175.742188 C 287.832031 175.742188 288.050781 175.957031 288.050781 176.226562 C 288.050781 178.058594 285.351562 179.496094 281.90625 179.496094 Z M 281.90625 179.496094 " fill-opacity="1" fill-rule="nonzero"/></g><path fill="#04182d" d="M 272.261719 167.707031 C 272.007812 167.707031 271.796875 167.511719 271.777344 167.253906 C 271.757812 166.988281 271.960938 166.753906 272.226562 166.738281 L 291.757812 165.382812 C 292.03125 165.367188 292.253906 165.566406 292.273438 165.835938 C 292.292969 166.101562 292.089844 166.332031 291.824219 166.351562 L 272.296875 167.703125 C 272.285156 167.707031 272.273438 167.707031 272.261719 167.707031 Z M 272.261719 167.707031 " fill-opacity="1" fill-rule="nonzero"/><path fill="#04182d" d="M 272.261719 170.808594 C 272.007812 170.808594 271.796875 170.613281 271.777344 170.355469 C 271.757812 170.089844 271.960938 169.859375 272.226562 169.839844 L 291.757812 168.488281 C 292.03125 168.472656 292.253906 168.667969 292.273438 168.9375 C 292.292969 169.203125 292.089844 169.4375 291.824219 169.453125 L 272.296875 170.808594 C 272.285156 170.808594 272.273438 170.808594 272.261719 170.808594 Z M 272.261719 170.808594 " fill-opacity="1" fill-rule="nonzero"/><path fill="#04182d" d="M 272.261719 173.910156 C 272.007812 173.910156 271.796875 173.714844 271.777344 173.460938 C 271.757812 173.191406 271.960938 172.960938 272.226562 172.941406 L 291.757812 171.589844 C 292.03125 171.570312 292.253906 171.773438 292.273438 172.039062 C 292.292969 172.308594 292.089844 172.539062 291.824219 172.558594 L 272.296875 173.910156 C 272.285156 173.910156 272.273438 173.910156 272.261719 173.910156 Z M 272.261719 173.910156 " fill-opacity="1" fill-rule="nonzero"/></svg>