<svg xmlns="http://www.w3.org/2000/svg" fill="none" viewBox="4 0 250 216.18">
<g filter="url(#filter0_d_673_1024)">
<path d="M245.734 83.7082C243.031 54.865 241.68 40.4434 235.391 31.1129C217.383 4.39683 165.027 -1.95734 131.961 0.479327C87.6922 3.74057 37.0495 25.7709 14.7574 68.306C-5.48967 106.94 3.84635 150.671 34.3543 179.278C90.2803 231.719 205.643 222.356 233.824 187.945C245.07 174.212 245.881 152.278 247.073 120.057C247.645 104.546 246.528 92.1863 245.734 83.7082Z" fill="#F4F7FA"/>
<path d="M224.52 17.6467C221.658 15.5968 217.317 14.4804 213.647 14.255C187.632 12.6591 183.835 59.7332 187.823 70.2535C191.81 80.7738 189.227 84.2281 168.738 89.7322C148.249 95.2363 158.078 105.834 160.576 112.031C163.073 118.229 168.018 123.464 153.082 129.622C138.146 135.78 143.337 139.596 143.337 139.596C143.337 139.596 170.881 163.986 169.36 156.178C167.838 148.369 170.595 136.578 195.291 135.681C205.928 135.295 222.217 130.903 225.823 121.043C226.664 118.747 227.248 115.24 226.609 112.864C225.723 109.567 223.224 106.969 221.836 103.867C218.602 96.6361 226.714 91.3412 231.382 86.508C233.819 83.9848 236.255 81.3976 238.12 78.5209C241.996 72.5481 240.545 66.143 236.325 60.6373C234.301 57.9976 231.49 55.1965 230.607 52.0472C229.659 48.6648 230.486 44.0431 230.711 40.5634C230.887 37.8341 231.188 35.1156 231.011 32.3794C230.682 27.2914 229.305 21.0739 224.52 17.6467Z" fill="url(#paint0_linear_673_1024)"/>
<g opacity="0.8">
<g opacity="0.8">
<path opacity="0.8" d="M141.171 153.285C140.993 153.341 140.79 153.275 140.7 153.126C140.602 152.963 140.674 152.762 140.862 152.677C140.978 152.624 152.574 147.344 165.51 138.648C177.43 130.634 192.958 117.999 199.245 103.31C204.496 91.043 209.284 70.7621 212.383 47.6694C215.163 26.9616 215.601 11.6467 214.421 8.80393C214.348 8.63099 214.453 8.44028 214.652 8.37775C214.852 8.31521 215.072 8.40554 215.145 8.57848C216.526 11.9046 215.649 29.1087 213.149 47.7466C210.043 70.8903 205.239 91.2267 199.967 103.542C193.615 118.381 177.975 131.114 165.972 139.181C152.983 147.912 141.336 153.214 141.22 153.267C141.203 153.274 141.187 153.28 141.171 153.285Z" fill="white"/>
</g>
<g opacity="0.8">
<path opacity="0.8" d="M212.342 51.6836C212.143 51.7453 211.94 51.6974 211.867 51.5253C211.771 51.2975 202.073 28.7105 189.567 23.6109C189.374 23.533 189.297 23.3446 189.387 23.1778C189.478 23.011 189.709 22.9454 189.9 23.0234C202.692 28.2395 212.189 50.3525 212.588 51.2937C212.661 51.4666 212.543 51.621 212.343 51.6828C212.342 51.6836 212.342 51.6836 212.342 51.6836Z" fill="white"/>
</g>
<g opacity="0.8">
<path opacity="0.8" d="M207.611 77.8772C207.463 77.9236 207.29 77.8873 207.184 77.7753C207.05 77.6332 207.073 77.4232 207.237 77.3067C207.308 77.2557 214.448 72.1855 223.258 67.9306C235.162 62.1817 244.285 60.5766 250.373 63.1607C250.564 63.2418 250.642 63.441 250.548 63.6062C250.455 63.7714 250.225 63.8394 250.034 63.7583C236.026 57.8133 208.007 77.6193 207.726 77.8201C207.691 77.8456 207.652 77.8649 207.611 77.8772Z" fill="white"/>
</g>
<g opacity="0.8">
<path opacity="0.8" d="M176.526 131.419C176.486 131.431 176.445 131.437 176.402 131.438C176.189 131.441 176.015 131.294 176.011 131.11C176.009 131.013 175.811 121.322 173.468 111.111C171.32 101.749 166.884 90.0215 157.951 87.3192C157.75 87.2582 157.644 87.0683 157.714 86.8953C157.784 86.7216 158.004 86.6297 158.204 86.6907C165.653 88.9436 171.042 97.1191 174.225 110.99C176.58 121.26 176.778 131.002 176.78 131.1C176.783 131.246 176.676 131.371 176.526 131.419Z" fill="white"/>
</g>
<g opacity="0.8">
<path opacity="0.8" d="M192.421 115.762C192.265 115.81 192.085 115.767 191.982 115.646C191.855 115.498 191.892 115.289 192.062 115.18C193.301 114.387 222.522 95.7905 233.917 97.5662C234.127 97.5987 234.265 97.7724 234.228 97.953C234.19 98.1345 233.99 98.2549 233.781 98.2217C222.708 96.4961 192.82 115.523 192.52 115.715C192.489 115.736 192.455 115.751 192.421 115.762Z" fill="white"/>
</g>
</g>
<path d="M247.353 86.9812C245.461 84.2141 241.812 81.8917 238.447 80.6046C214.589 71.4826 192.617 114.668 192.257 125.735C191.897 136.803 188.115 139.297 166.685 138.475C145.253 137.652 150.36 150.504 150.288 157.068C150.215 163.631 152.822 170.006 136.36 171.426C119.898 172.846 123.291 177.956 123.291 177.956C123.291 177.956 139.677 208.977 141.298 201.183C142.918 193.388 150.121 183.101 173.71 189.492C183.87 192.244 200.915 192.883 208.163 184.661C209.852 182.746 211.772 179.618 212.099 177.194C212.553 173.833 211.217 170.656 211.123 167.33C210.906 159.579 220.609 156.972 226.891 153.792C230.17 152.132 233.474 150.41 236.354 148.25C242.335 143.765 243.474 137.313 241.655 130.896C240.783 127.819 239.232 124.36 239.633 121.138C240.063 117.677 242.647 113.57 244.219 110.361C245.451 107.845 246.797 105.374 247.7 102.748C249.381 97.8613 250.516 91.6075 247.353 86.9812Z" fill="url(#paint1_linear_673_1024)"/>
<g opacity="0.8">
<g opacity="0.8">
<path opacity="0.8" d="M115.902 190.203C115.713 190.203 115.548 190.082 115.521 189.915C115.492 189.733 115.639 189.564 115.85 189.54C115.979 189.524 128.955 187.952 144.527 183.558C158.875 179.509 178.427 172.167 190.084 160.187C199.821 150.181 212.254 132.5 224.196 111.677C234.905 93.0049 241.304 78.7216 241.304 75.7004C241.304 75.5167 241.476 75.3677 241.688 75.3677C241.901 75.3677 242.073 75.5167 242.073 75.7004C242.073 79.235 234.523 95.1675 224.885 111.973C212.916 132.842 200.446 150.572 190.672 160.616C178.895 172.719 159.2 180.119 144.752 184.195C129.116 188.605 116.084 190.184 115.953 190.199C115.937 190.202 115.92 190.203 115.902 190.203Z" fill="white"/>
</g>
<g opacity="0.8">
<path opacity="0.8" d="M222.588 115.511C222.377 115.511 222.205 115.372 222.204 115.189C222.202 114.947 221.905 90.8341 212.13 82.3722C211.98 82.2425 211.98 82.0332 212.13 81.9035C212.28 81.7738 212.524 81.7746 212.674 81.9043C222.673 90.56 222.966 114.182 222.974 115.185C222.975 115.368 222.804 115.511 222.591 115.511C222.589 115.511 222.588 115.511 222.588 115.511Z" fill="white"/>
</g>
<g opacity="0.8">
<path opacity="0.8" d="M207.899 138.706C207.741 138.706 207.593 138.621 207.537 138.485C207.466 138.312 207.569 138.122 207.77 138.059C207.856 138.032 216.557 135.352 226.511 133.929C239.96 132.006 249.172 133.169 253.892 137.384C254.04 137.516 254.035 137.726 253.883 137.855C253.73 137.983 253.487 137.979 253.339 137.847C242.481 128.15 208.373 138.579 208.029 138.686C207.986 138.7 207.942 138.706 207.899 138.706Z" fill="white"/>
</g>
<g opacity="0.8">
<path opacity="0.8" d="M157.719 179.983C157.678 179.983 157.636 179.977 157.594 179.965C157.393 179.906 157.285 179.717 157.355 179.542C157.391 179.451 160.993 170.274 162.779 159.978C164.417 150.539 164.826 138.204 157.476 133.044C157.311 132.928 157.286 132.718 157.42 132.576C157.554 132.433 157.796 132.41 157.961 132.527C164.09 136.829 165.967 146.102 163.538 160.085C161.741 170.439 158.119 179.665 158.083 179.758C158.028 179.896 157.878 179.983 157.719 179.983Z" fill="white"/>
</g>
<g opacity="0.8">
<path opacity="0.8" d="M178.796 169.906C178.63 169.906 178.478 169.812 178.428 169.669C178.366 169.493 178.482 169.307 178.685 169.254C180.161 168.871 214.927 159.931 224.956 164.94C225.14 165.032 225.203 165.235 225.097 165.395C224.991 165.554 224.755 165.608 224.572 165.517C214.826 160.649 179.264 169.799 178.907 169.892C178.87 169.901 178.833 169.906 178.796 169.906Z" fill="white"/>
</g>
</g>
<path d="M167.381 9.18402L167.106 10.8872C166.194 10.9235 165.296 11.0254 164.423 11.1953L163.679 9.60634C163.477 9.17321 162.903 8.96707 162.4 9.14696L159.245 10.2719C158.74 10.4518 158.494 10.9505 158.696 11.3844L159.443 12.9934C158.679 13.415 157.956 13.8921 157.284 14.4202L155.7 13.3563C155.272 13.0691 154.651 13.1401 154.313 13.5154L152.194 15.8625C151.854 16.2385 151.926 16.7774 152.354 17.0654L153.945 18.1355C153.521 18.8241 153.165 19.5514 152.878 20.3104L150.86 20.0811C150.317 20.0193 149.813 20.3521 149.732 20.8246L149.225 23.7847C149.144 24.2588 149.518 24.6942 150.061 24.756L152.086 24.9861C152.11 25.7852 152.211 26.5711 152.39 27.3363L150.49 28.0219C149.979 28.2064 149.727 28.7167 149.929 29.1607L151.194 31.9448C151.397 32.391 151.977 32.6018 152.491 32.4157L154.391 31.727C154.87 32.4003 155.414 33.0349 156.019 33.6248L154.753 35.0485C154.41 35.4338 154.483 35.985 154.917 36.28L157.632 38.1237C158.066 38.4186 158.697 38.3445 159.038 37.9577L160.289 36.5432C161.088 36.9115 161.934 37.218 162.816 37.4628L162.532 39.2278C162.454 39.7111 162.835 40.1535 163.382 40.2152L166.81 40.6044C167.358 40.6669 167.864 40.3249 167.941 39.8415L168.217 38.0897C169.149 38.055 170.065 37.9507 170.956 37.777L171.708 39.3953C171.917 39.8446 172.501 40.057 173.013 39.8693L176.209 38.6966C176.72 38.5089 176.964 37.994 176.754 37.5462L176.002 35.9395C176.783 35.5033 177.517 35.0084 178.199 34.461L179.761 35.5125C180.198 35.8067 180.825 35.7326 181.16 35.3473L183.253 32.9446C183.588 32.5609 183.505 32.0135 183.068 31.7209L181.52 30.6817C181.942 29.9737 182.293 29.2255 182.571 28.4465L184.506 28.6665C185.049 28.7283 185.547 28.3925 185.617 27.9169L186.057 24.949C186.128 24.4757 185.745 24.0418 185.203 23.9801L183.273 23.7608C183.233 22.9517 183.115 22.158 182.917 21.3867L184.707 20.7381C185.21 20.5559 185.448 20.0525 185.239 19.614L183.932 16.8777C183.723 16.4407 183.147 16.2338 182.644 16.4153L180.843 17.0654C180.353 16.3991 179.798 15.7706 179.182 15.1892L180.371 13.845C180.702 13.4706 180.621 12.9355 180.191 12.6491L177.502 10.8602C177.072 10.5745 176.456 10.6448 176.124 11.0177L174.928 12.3634C174.134 12.0067 173.295 11.7102 172.42 11.4755L172.687 9.78547C172.76 9.32068 172.385 8.89372 171.847 8.83272L168.487 8.45132C167.952 8.39187 167.455 8.71846 167.381 9.18402ZM155.536 22.9802C156.507 17.131 162.708 13.0305 169.393 13.7894C176.077 14.5484 180.772 19.8865 179.874 25.7435C178.97 31.6367 172.756 35.8175 165.998 35.0508C159.241 34.2834 154.559 28.865 155.536 22.9802Z" fill="#D8DEE8"/>
<path d="M115.865 8.26075L115.44 10.8943C114.03 10.9499 112.643 11.1074 111.292 11.3699L110.143 8.91315C109.829 8.24299 108.943 7.92489 108.165 8.20284L103.287 9.94233C102.507 10.221 102.126 10.9908 102.438 11.6633L103.594 14.1509C102.412 14.8025 101.295 15.5399 100.256 16.3575L97.8029 14.7122C97.142 14.2683 96.1815 14.3787 95.6588 14.9577L92.3821 18.5865C91.8568 19.1678 91.9683 20.0009 92.6301 20.4464L95.0889 22.1017C94.4343 23.1664 93.8831 24.2913 93.439 25.4641L90.3184 25.1097C89.4809 25.0148 88.7005 25.529 88.5748 26.2593L87.7908 30.837C87.6651 31.5704 88.2448 32.2429 89.0849 32.3379L92.2145 32.693C92.2519 33.9284 92.4071 35.1444 92.6854 36.3272L89.7485 37.3872C88.9565 37.6729 88.5676 38.4612 88.8798 39.1483L90.8365 43.4527C91.1496 44.1421 92.0477 44.4687 92.8414 44.1807L95.7801 43.116C96.5186 44.1568 97.3614 45.1381 98.297 46.0499L96.3393 48.2511C95.8096 48.8471 95.9228 49.6995 96.5935 50.155L100.792 53.0055C101.463 53.4618 102.438 53.3468 102.967 52.7492L104.901 50.5627C106.136 51.1325 107.445 51.6065 108.808 51.9849L108.368 54.7141C108.247 55.4615 108.836 56.1456 109.684 56.2413L114.984 56.8427C115.831 56.9393 116.614 56.4104 116.732 55.663L117.16 52.9546C118.601 52.9013 120.017 52.7399 121.394 52.4713L122.557 54.9736C122.879 55.6684 123.783 55.9966 124.574 55.7063L129.517 53.8934C130.306 53.6039 130.683 52.8071 130.359 52.1138L129.196 49.6293C130.402 48.9552 131.538 48.1893 132.593 47.3431L135.008 48.9691C135.683 49.4239 136.651 49.3088 137.17 48.7143L140.406 44.9999C140.923 44.4069 140.795 43.56 140.121 43.1075L137.727 41.5016C138.38 40.4061 138.921 39.2495 139.351 38.0458L142.344 38.3855C143.184 38.4813 143.954 37.9617 144.063 37.2267L144.743 32.6374C144.851 31.9047 144.259 31.2346 143.422 31.1396L140.437 30.8007C140.376 29.5499 140.194 28.3223 139.887 27.1302L142.656 26.1273C143.434 25.8455 143.802 25.0673 143.478 24.3894L141.456 20.1584C141.133 19.4828 140.242 19.1632 139.465 19.4435L136.682 20.4479C135.924 19.4172 135.065 18.4459 134.113 17.548L135.952 15.4696C136.464 14.8913 136.339 14.0637 135.673 13.6205L131.515 10.8549C130.851 10.4133 129.897 10.5222 129.385 11.0989L127.533 13.1796C126.305 12.6284 125.009 12.1698 123.657 11.8061L124.07 9.19264C124.183 8.47384 123.602 7.81449 122.771 7.72029L117.576 7.13043C116.748 7.03623 115.981 7.54194 115.865 8.26075ZM97.5505 29.5924C99.0515 20.5483 108.64 14.208 118.975 15.3816C129.31 16.5551 136.569 24.8086 135.181 33.865C133.784 42.9763 124.176 49.4416 113.728 48.255C103.279 47.0691 96.0397 38.6905 97.5505 29.5924Z" fill="#D8DEE8"/>
<path d="M110.894 33.7623L88.1731 197.252C87.8325 199.703 89.7838 201.901 92.5183 202.135L187.156 211.13C192.953 211.442 196.127 208.878 196.485 206.271L220.34 32.4544C220.696 29.8625 217.852 27.5146 212.03 27.5146L116.532 29.2557C113.766 29.2966 111.233 31.3241 110.894 33.7623Z" fill="url(#paint2_linear_673_1024)"/>
<path d="M106.635 33.482L83.7889 197.79C83.4464 200.253 85.4049 202.462 88.1483 202.698L186.26 211.155C189.336 211.42 192.156 209.493 192.515 206.874L216.503 32.1587C216.861 29.553 214.602 27.4591 211.492 27.5046L112.292 28.9538C109.518 28.9932 106.976 31.0315 106.635 33.482Z" fill="url(#paint3_linear_673_1024)"/>
<path d="M108.497 42.5437L87.3214 194.889C87.0013 197.191 88.8358 199.251 91.4035 199.467L183.675 207.232C186.534 207.473 189.154 205.674 189.49 203.236L211.659 41.8395C211.992 39.4137 209.895 37.4503 207.006 37.4773L113.787 38.3366C111.193 38.3598 108.815 40.2537 108.497 42.5437Z" fill="#D8DEE8"/>
<path d="M157.978 33.3676C157.856 34.2424 158.581 34.9426 159.598 34.9311C160.616 34.9203 161.54 34.2007 161.661 33.3244C161.782 32.4481 161.055 31.7478 160.037 31.7609C159.019 31.774 158.098 32.4936 157.978 33.3676Z" fill="url(#paint4_linear_673_1024)"/>
<path d="M124.45 144.808C143.339 114.575 171.559 105.524 180.055 74.365C184.647 57.5222 181.518 41.4013 176.248 28.0181L211.494 27.5032C214.604 27.4576 216.863 29.5523 216.505 32.1572L192.517 206.872C192.157 209.493 189.338 211.419 186.262 211.153L109.136 204.506C108.565 177.415 116.029 158.285 124.45 144.808Z" fill="white"/>
<path d="M13.4866 50.8207C13.4866 34.7553 29.6748 21.7343 49.1013 21.7358C67.9535 21.7374 82.8316 34.0736 82.8316 49.2889C82.8316 64.5041 67.9535 77.4974 49.1013 78.332C29.6739 79.1921 13.4866 66.886 13.4866 50.8207Z" fill="url(#paint5_linear_673_1024)"/>
<path d="M15.5806 49.5394C15.5806 33.4741 31.3005 20.453 50.1643 20.4546C68.4707 20.4561 82.9189 32.7923 82.9189 48.0076C82.9189 63.2229 68.4707 76.2161 50.1643 77.0507C31.2996 77.9108 15.5806 65.604 15.5806 49.5394Z" fill="url(#paint6_linear_673_1024)"/>
<g opacity="0.5">
<path opacity="0.5" d="M20.9622 49.4168C20.9622 35.9194 34.1689 24.9791 50.0182 24.9814C65.3983 24.983 77.5375 35.3473 77.5375 48.1305C77.5375 60.9138 65.3992 71.8301 50.0182 72.5312C34.1689 73.2538 20.9622 62.9142 20.9622 49.4168Z" fill="white"/>
</g>
<path opacity="0.5" d="M48.9274 27.0552C64.3076 27.0568 76.4468 37.4211 76.4468 50.2043C76.4468 53.244 75.7538 56.1756 74.5007 58.8917C76.4414 55.6212 77.5384 51.9608 77.5384 48.1306C77.5384 35.3473 65.4002 24.983 50.0191 24.9814C37.7952 24.9807 27.1499 31.4908 22.9163 40.66C27.71 32.5987 37.6472 27.0545 48.9274 27.0552Z" fill="white"/>
<path d="M36.877 46.1132V57.8935C36.877 61.2991 40.1867 63.9859 44.2571 63.8941L54.3503 63.6663C58.3717 63.5752 61.6217 60.7703 61.6217 57.4001V45.7441L36.877 46.1132ZM46.1719 58.2919L48.0475 53.3715C47.244 53.0125 46.6999 52.3052 46.6999 51.4814C46.6999 50.2724 47.8718 49.2725 49.3149 49.2494C50.7561 49.2254 51.9236 50.1843 51.9236 51.3911C51.9236 52.2134 51.3813 52.9383 50.5804 53.3259L52.4489 58.1653L46.1719 58.2919Z" fill="white"/>
<path d="M58.7526 44.7225C57.6815 44.738 56.8128 44.0207 56.8128 43.1197C56.8128 39.6569 53.4549 36.8775 49.314 36.9238C45.1588 36.9701 41.7671 39.843 41.7671 43.3274C41.7671 44.2338 40.8868 44.9812 39.7996 44.9974C38.7116 45.0128 37.8286 44.2901 37.8286 43.3822C37.8286 38.0788 42.9952 33.7135 49.3149 33.6525C55.6008 33.5915 60.6888 37.8148 60.6888 43.0672C60.6888 43.9659 59.8229 44.7071 58.7526 44.7225Z" fill="white"/>
<path d="M82.1306 111.914C82.1306 111.914 81.4439 109.686 81.9309 109.116C82.4169 108.546 85.3913 106.268 85.1059 107.011C84.8196 107.754 84.3906 108.249 84.3906 108.249C84.3906 108.249 85.9924 108.893 84.9623 109.858C83.9331 110.824 83.5888 111.046 83.5317 111.913C83.4756 112.78 82.8174 113.077 82.1306 111.914Z" fill="url(#paint7_linear_673_1024)"/>
<path d="M53.5596 208.096C53.5596 208.096 53.1957 210.023 53.2421 210.709C53.2885 211.394 62.0805 211.745 62.1688 211.232C62.2571 210.718 60.7159 209.901 59.6305 209.613C58.5451 209.324 55.3683 208.555 55.3683 208.555L53.5596 208.096Z" fill="url(#paint8_linear_673_1024)"/>
<path d="M55.6935 206.176L55.4135 208.572C55.4135 208.572 54.3923 209.157 53.4924 208.706L53.042 206.098L55.6935 206.176Z" fill="url(#paint9_linear_673_1024)"/>
<path d="M37.8729 211.22C37.8729 211.22 37.509 213.147 37.5554 213.833C37.6017 214.519 46.3937 214.869 46.482 214.356C46.5712 213.842 45.0292 213.025 43.9438 212.737C42.8584 212.449 39.6816 211.679 39.6816 211.679L37.8729 211.22Z" fill="url(#paint10_linear_673_1024)"/>
<path d="M40.0072 209.299L39.7272 211.696C39.7272 211.696 38.706 212.28 37.8061 211.829L37.3557 209.221L40.0072 209.299Z" fill="url(#paint11_linear_673_1024)"/>
<path d="M54.0986 143.617C55.1144 145.401 56.1312 147.184 57.147 148.968C57.9639 159.146 58.3706 170.215 58.1093 182.051C57.9149 190.857 57.3717 199.2 56.5905 207.03C55.2125 206.975 53.8346 206.921 52.4567 206.866C50.4643 203.442 48.1124 198.256 47.8957 191.854C47.67 185.177 50.0085 184.289 49.8605 177.896C49.6678 169.608 45.6535 167.397 43.5149 157.429C42.697 153.617 42.1467 148.637 42.8005 142.597C46.5668 142.937 50.3323 143.278 54.0986 143.617Z" fill="url(#paint12_linear_673_1024)"/>
<path opacity="0.3" d="M42.8011 142.597C44.8346 142.78 46.868 142.964 48.9024 143.148C52.5635 148.663 53.5855 154.402 52.9425 156.942C52.0337 160.534 49.6292 161.685 49.7621 165.291C49.8932 168.86 52.3218 169.785 53.862 173.991C54.9287 176.903 54.6468 179.581 54.0404 184.817C52.8185 195.364 49.8763 198.59 52.3405 202.048C53.0406 203.031 54.3026 204.2 56.7748 205.094C56.7142 205.741 56.6544 206.389 56.5911 207.029C55.2132 206.975 53.8352 206.92 52.4573 206.866C50.4649 203.442 48.1131 198.256 47.8963 191.854C47.6707 185.177 50.0092 184.289 49.8611 177.896C49.6685 169.608 45.6542 167.398 43.5155 157.43C42.6977 153.617 42.1465 148.638 42.8011 142.597Z" fill="url(#paint13_linear_673_1024)"/>
<path d="M48.6302 146.828C46.7225 155.834 45.0377 165.471 43.7231 175.693C42.1356 188.034 41.2883 199.67 40.9557 210.472C39.4431 210.509 37.9314 210.546 36.4188 210.583C30.4593 200.377 30.0955 193.458 30.9543 188.952C31.2852 187.217 32.1851 183.813 32.3902 178.725C32.5329 175.179 32.2716 172.479 31.9452 169.235C31.2299 162.122 30.3612 160.569 30.2364 155.129C30.1186 150.022 30.0946 147.439 31.7784 145.931C36.2145 141.957 47.7552 146.476 48.6302 146.828Z" fill="url(#paint14_linear_673_1024)"/>
<path d="M81.3397 111.57C82.3457 111.509 83.3508 111.449 84.3569 111.388C86.7292 119.688 85.0275 127.739 79.6728 130.7C71.3062 135.327 55.7566 126.611 52.3871 117.12C50.9084 112.953 51.2447 106.942 54.2012 105.774C55.0217 105.45 56.2953 105.399 59.0538 106.74C67.292 110.744 67.5087 118.312 71.6969 118.952C73.5573 119.238 76.5647 118.211 81.3397 111.57Z" fill="url(#paint15_linear_673_1024)"/>
<path d="M58.3047 150.794C59.7539 148.712 57.9336 146.705 57.5198 142.762C57.0507 138.292 59.0396 137.548 61.0061 130.142C62.3145 125.216 63.5693 120.487 62.071 114.951C61.3531 112.298 60.1348 107.799 55.8324 105.625C53.6126 104.503 50.5811 104.616 44.6101 104.886C37.2255 105.221 33.5341 105.387 30.78 106.643C30.3769 106.827 22.0005 110.771 21.4235 117.201C20.8366 123.745 29.0685 124.624 30.1664 133.351C30.6596 137.269 29.7811 143.294 29.2112 147.201C28.6645 150.954 28.2872 151.914 29.1434 153.051C31.2054 155.789 37.5171 155.009 50.1406 153.448C55.0922 152.835 57.2228 152.347 58.3047 150.794Z" fill="url(#paint16_linear_673_1024)"/>
<path d="M39.0967 131.947C38.5625 133.648 36.6432 134.918 35.3072 139.055C35.0191 139.949 32.9634 146.31 35.6291 147.875C37.1685 148.78 38.5509 147.066 42.2878 146.842C48.7627 146.455 51.8477 151.166 56.0778 149.879C56.8118 149.655 57.7803 149.179 58.748 148.086C58.9406 149.071 58.9076 149.928 58.3048 150.795C57.2238 152.348 55.0923 152.836 50.1406 153.448C37.5172 155.009 31.2055 155.789 29.1435 153.051C28.2882 151.915 28.6646 150.954 29.2113 147.201C29.7812 143.293 30.6597 137.268 30.1665 133.351C29.0686 124.624 20.8358 123.745 21.4235 117.201C21.5805 115.451 22.3234 113.894 23.3179 112.538C33.7607 116.196 40.7743 126.602 39.0967 131.947Z" fill="url(#paint17_linear_673_1024)"/>
<path d="M25.9077 144.818L27.9973 145.973C28.3728 145.598 29.2415 144.842 30.5971 144.584C32.1249 144.293 33.8792 144.71 33.9193 145.132C33.9523 145.47 32.8839 145.811 32.7189 145.864C31.3855 146.29 30.3965 145.936 29.8578 146.4C29.6669 146.563 29.4297 146.869 28.883 147.152C28.7394 147.226 28.5895 147.291 28.5102 147.318C27.6201 147.618 26.0941 146.277 25.963 146.16L25.9077 144.818Z" fill="url(#paint18_linear_673_1024)"/>
<path d="M32.0802 121.096C33.5919 117.962 34.639 113.164 32.2515 106.038C16.5208 111.404 8.49847 124.125 11.6307 134.208C14.2126 142.521 23.6075 146.57 25.7034 147.422C26.1913 146.461 26.6791 145.5 27.1661 144.54C24.7375 142.199 22.0004 138.737 22.3875 134.786C22.9244 129.309 29.0202 127.44 32.0802 121.096Z" fill="url(#paint19_linear_673_1024)"/>
<path d="M44.2225 98.4395C44.2225 98.4395 44.0986 100.821 43.2442 102.606C42.4718 104.218 38.4121 105.231 37.5889 105.591C36.7657 105.951 39.1309 107.003 41.5059 107.209C43.881 107.416 50.6627 106.949 51.8854 106.17C53.1082 105.391 50.9026 105.45 49.2081 104.911C47.5126 104.372 46.5325 101.502 46.8321 100.2C47.1318 98.8965 44.2225 98.4395 44.2225 98.4395Z" fill="url(#paint20_linear_673_1024)"/>
<path d="M47.979 97.5754C49.2115 96.5269 49.3837 96.4049 49.5174 96.0428C50.0561 94.589 48.7531 92.5971 47.0443 92.1068C46.9551 92.0813 45.8091 91.764 45.3721 92.194C45.0002 92.5592 45.5469 93.0642 45.2873 93.7691C45.0439 94.4284 44.3839 94.4778 43.1594 95.3426C42.1507 96.0544 41.5246 96.4976 41.3801 97.1207C41.0822 98.4046 42.8775 100.265 44.4668 100.215C45.0385 100.197 45.1946 99.9441 47.979 97.5754Z" fill="url(#paint21_linear_673_1024)"/>
<path d="M44.6232 100.414C44.6232 100.414 45.9334 101.698 47.9285 101.273C49.7149 100.893 49.2591 97.3431 47.9517 96.7764C47.5156 96.5873 46.7227 96.6027 46.1269 96.8513C45.7746 96.998 45.6765 97.1509 45.0959 97.381C44.5608 97.5933 44.3905 97.5639 44.2469 97.7137C44.0667 97.9006 43.9891 98.3036 44.5537 99.2748C44.147 99.0255 43.7091 98.973 43.4406 99.1382C43.3978 99.1644 43.289 99.2571 43.2417 99.3783C43.0714 99.8176 43.5994 100.265 44.6232 100.414Z" fill="url(#paint22_linear_673_1024)"/>
<path d="M194.033 52.3477L194.494 54.5025L185.002 54.5218L102.63 54.6909C100.511 54.6955 98.5619 56.2119 98.2712 58.078L78.6074 171.845C78.3148 173.729 81.7003 176.603 83.8069 176.743L120.351 179.175V179.136L175.015 182.766C175.016 182.766 175.017 182.766 175.018 182.766L175.15 182.814C177.484 182.97 179.625 181.504 179.928 179.515C179.928 179.514 179.928 179.524 179.929 179.523L198.344 58.0564C198.644 56.086 196.381 52.3423 194.033 52.3477Z" fill="url(#paint23_linear_673_1024)"/>
<path d="M178.066 177.149C177.765 179.139 175.624 180.626 173.29 180.47L81.8528 174.393C79.7471 174.253 78.2818 172.613 78.5743 170.73L96.4499 55.7526C96.7397 53.8865 98.6885 52.3702 100.806 52.3648L192.759 52.1455C195.106 52.1401 196.77 53.7329 196.472 55.7032L178.066 177.149Z" fill="url(#paint24_linear_673_1024)"/>
<path d="M179.281 113.917C179.131 114.903 178.068 115.638 176.907 115.601L96.4311 113.058C95.3689 113.025 94.6215 112.268 94.7678 111.326L96.35 101.174C96.4962 100.234 97.4657 99.5978 98.5288 99.6233L179.075 101.56C180.238 101.587 181.061 102.299 180.912 103.283L179.281 113.917Z" fill="white"/>
<path d="M176.165 134.545C176.015 135.532 174.951 136.375 173.79 136.324L93.3749 132.886C92.3135 132.84 91.5751 131.961 91.7213 131.019L93.316 120.671C93.4623 119.729 94.4406 118.923 95.5028 118.96L175.967 121.769C177.128 121.81 177.949 122.72 177.799 123.706L176.165 134.545Z" fill="white"/>
<path opacity="0.1" d="M180.919 103.242C180.728 103.189 180.523 103.159 180.304 103.154L99.7564 101.218C98.6941 101.192 97.7238 101.83 97.5793 102.768L95.9945 112.92C95.9909 112.946 95.9882 112.971 95.9856 112.997C95.1686 112.798 94.6433 112.128 94.7664 111.325L96.3512 101.173C96.4957 100.235 97.466 99.5964 98.5283 99.6234L179.076 101.559C180.218 101.588 181.038 102.277 180.919 103.242Z" fill="url(#paint25_linear_673_1024)"/>
<path opacity="0.1" d="M177.817 123.477C177.623 123.411 177.414 123.37 177.193 123.363L96.7312 120.552C95.669 120.515 94.6888 121.324 94.5444 122.265L92.947 132.614C92.9381 132.68 92.9319 132.744 92.9319 132.811C92.1149 132.582 91.5959 131.822 91.7189 131.019L93.3163 120.67C93.4607 119.729 94.44 118.92 95.5031 118.957L175.965 121.768C177.04 121.808 177.819 122.584 177.817 123.477Z" fill="url(#paint26_linear_673_1024)"/>
<path d="M154.778 151.264C155.015 149.707 153.743 148.273 151.936 148.182L110.308 146.113C108.584 146.027 106.992 147.284 106.757 148.801L105.04 160.01C104.805 161.528 106.001 162.981 107.724 163.083L149.33 165.548C151.137 165.655 152.802 164.334 153.04 162.774L154.778 151.264Z" fill="url(#paint27_linear_673_1024)"/>
<path d="M157.922 75.7452C157.373 79.3284 155.247 82.5627 152.224 84.9414C148.966 87.507 144.674 89.0682 140.211 88.9933C135.771 88.9192 132.033 87.2399 129.633 84.6171C127.419 82.1998 126.335 78.9787 126.878 75.4557C128.008 68.1264 135.787 62.2015 144.323 62.2193C152.94 62.2355 159.062 68.2909 157.922 75.7452Z" fill="url(#paint28_linear_673_1024)"/>
<path d="M149.621 71.6725C149.129 74.8828 145.706 77.4553 141.989 77.4167C138.288 77.3781 135.696 74.7631 136.186 71.576C136.677 68.3896 140.065 65.8194 143.768 65.834C147.487 65.8487 150.113 68.4622 149.621 71.6725Z" fill="white"/>
<path d="M152.224 84.9415C148.966 87.5071 144.675 89.0682 140.212 88.9933C135.771 88.9192 132.034 87.2399 129.634 84.6172C132.38 81.3042 136.911 79.1007 141.723 79.1548C146.56 79.2088 150.459 81.5297 152.224 84.9415Z" fill="white"/>
<path opacity="0.4" d="M196.471 55.7023L178.066 177.148C177.765 179.137 175.488 180.615 173.155 180.46L118.236 176.81C115.628 174.497 113.479 171.723 111.946 168.393C111.193 166.76 110.642 164.998 110.276 163.145C109.256 158.017 109.651 152.188 111.138 146.466C112.281 142.061 114.074 137.713 116.369 133.789C118.204 130.652 120.363 127.784 122.773 125.373C124.509 123.639 126.386 121.953 128.366 120.3C130.754 118.305 133.291 116.358 135.909 114.429C142.008 109.93 148.539 105.531 154.586 100.886C168.538 90.1715 179.858 78.199 177.134 61.116C177.047 60.5779 176.197 56.4574 175.11 52.1862L192.623 52.1445C194.969 52.1391 196.77 53.7327 196.471 55.7023Z" fill="white"/>
</g>
<defs>
<filter id="filter0_d_673_1024" x="0" y="0" width="258" height="224.181" filterUnits="userSpaceOnUse" color-interpolation-filters="sRGB">
<feFlood flood-opacity="0" result="BackgroundImageFix"/>
<feColorMatrix in="SourceAlpha" type="matrix" values="0 0 0 0 0 0 0 0 0 0 0 0 0 0 0 0 0 0 127 0" result="hardAlpha"/>
<feOffset dy="4"/>
<feGaussianBlur stdDeviation="2"/>
<feComposite in2="hardAlpha" operator="out"/>
<feColorMatrix type="matrix" values="0 0 0 0 0 0 0 0 0 0 0 0 0 0 0 0 0 0 0.25 0"/>
<feBlend mode="normal" in2="BackgroundImageFix" result="effect1_dropShadow_673_1024"/>
<feBlend mode="normal" in="SourceGraphic" in2="effect1_dropShadow_673_1024" result="shape"/>
</filter>
<linearGradient id="paint0_linear_673_1024" x1="171.225" y1="155.93" x2="221.563" y2="-1.11623" gradientUnits="userSpaceOnUse">
<stop offset="0.00359712" stop-color="#E38DDD"/>
<stop offset="1" stop-color="#9571F6"/>
</linearGradient>
<linearGradient id="paint1_linear_673_1024" x1="123.002" y1="140.894" x2="249.355" y2="140.894" gradientUnits="userSpaceOnUse">
<stop stop-color="#FF9085"/>
<stop offset="1" stop-color="#FB6FBB"/>
</linearGradient>
<linearGradient id="paint2_linear_673_1024" x1="155.427" y1="115.107" x2="192.577" y2="119.789" gradientUnits="userSpaceOnUse">
<stop stop-color="#444B8C"/>
<stop offset="0.9964" stop-color="#26264F"/>
</linearGradient>
<linearGradient id="paint3_linear_673_1024" x1="122.566" y1="33.7231" x2="193.082" y2="311.036" gradientUnits="userSpaceOnUse">
<stop stop-color="#444B8C"/>
<stop offset="0.9964" stop-color="#26264F"/>
</linearGradient>
<linearGradient id="paint4_linear_673_1024" x1="157.124" y1="27.0277" x2="240.868" y2="289.023" gradientUnits="userSpaceOnUse">
<stop stop-color="#FFC444"/>
<stop offset="0.9964" stop-color="#F36F56"/>
</linearGradient>
<linearGradient id="paint5_linear_673_1024" x1="-789.812" y1="734.08" x2="-725.757" y2="664.307" gradientUnits="userSpaceOnUse">
<stop stop-color="#311944"/>
<stop offset="1" stop-color="#893976"/>
</linearGradient>
<linearGradient id="paint6_linear_673_1024" x1="26.7176" y1="66.4547" x2="78.3316" y2="12.3494" gradientUnits="userSpaceOnUse">
<stop stop-color="#FF9085"/>
<stop offset="1" stop-color="#FB6FBB"/>
</linearGradient>
<linearGradient id="paint7_linear_673_1024" x1="86.9091" y1="107.036" x2="76.8483" y2="118.865" gradientUnits="userSpaceOnUse">
<stop stop-color="#FFC444"/>
<stop offset="0.9964" stop-color="#F36F56"/>
</linearGradient>
<linearGradient id="paint8_linear_673_1024" x1="57.728" y1="205.571" x2="57.8024" y2="182.558" gradientUnits="userSpaceOnUse">
<stop stop-color="#AA80F9"/>
<stop offset="0.9964" stop-color="#6165D7"/>
</linearGradient>
<linearGradient id="paint9_linear_673_1024" x1="55.095" y1="212.966" x2="54.1444" y2="201.049" gradientUnits="userSpaceOnUse">
<stop stop-color="#FFC444"/>
<stop offset="0.9964" stop-color="#F36F56"/>
</linearGradient>
<linearGradient id="paint10_linear_673_1024" x1="42.0556" y1="205.52" x2="42.1299" y2="182.507" gradientUnits="userSpaceOnUse">
<stop stop-color="#AA80F9"/>
<stop offset="0.9964" stop-color="#6165D7"/>
</linearGradient>
<linearGradient id="paint11_linear_673_1024" x1="39.2108" y1="214.233" x2="38.2602" y2="202.316" gradientUnits="userSpaceOnUse">
<stop stop-color="#FFC444"/>
<stop offset="0.9964" stop-color="#F36F56"/>
</linearGradient>
<linearGradient id="paint12_linear_673_1024" x1="54.6143" y1="153.047" x2="47.244" y2="196.574" gradientUnits="userSpaceOnUse">
<stop stop-color="#311944"/>
<stop offset="1" stop-color="#893976"/>
</linearGradient>
<linearGradient id="paint13_linear_673_1024" x1="59.4768" y1="174.135" x2="44.8688" y2="175.488" gradientUnits="userSpaceOnUse">
<stop stop-color="#311944"/>
<stop offset="1" stop-color="#893976"/>
</linearGradient>
<linearGradient id="paint14_linear_673_1024" x1="51.3796" y1="176.518" x2="29.2033" y2="178.572" gradientUnits="userSpaceOnUse">
<stop stop-color="#311944"/>
<stop offset="1" stop-color="#893976"/>
</linearGradient>
<linearGradient id="paint15_linear_673_1024" x1="68.9337" y1="113.02" x2="56.5383" y2="204.977" gradientUnits="userSpaceOnUse">
<stop stop-color="#AA80F9"/>
<stop offset="0.9964" stop-color="#6165D7"/>
</linearGradient>
<linearGradient id="paint16_linear_673_1024" x1="33.9644" y1="213.358" x2="27.9965" y2="305.742" gradientUnits="userSpaceOnUse">
<stop stop-color="#AA80F9"/>
<stop offset="0.9964" stop-color="#6165D7"/>
</linearGradient>
<linearGradient id="paint17_linear_673_1024" x1="6.92693" y1="181.901" x2="42.0567" y2="112.391" gradientUnits="userSpaceOnUse">
<stop stop-color="#AA80F9"/>
<stop offset="0.9964" stop-color="#6165D7"/>
</linearGradient>
<linearGradient id="paint18_linear_673_1024" x1="22.4862" y1="136.901" x2="30.0986" y2="148.78" gradientUnits="userSpaceOnUse">
<stop stop-color="#FFC444"/>
<stop offset="0.9964" stop-color="#F36F56"/>
</linearGradient>
<linearGradient id="paint19_linear_673_1024" x1="14.5349" y1="212.102" x2="8.56698" y2="304.487" gradientUnits="userSpaceOnUse">
<stop stop-color="#AA80F9"/>
<stop offset="0.9964" stop-color="#6165D7"/>
</linearGradient>
<linearGradient id="paint20_linear_673_1024" x1="48.7732" y1="109.927" x2="41.3665" y2="99.2813" gradientUnits="userSpaceOnUse">
<stop stop-color="#FFC444"/>
<stop offset="0.9964" stop-color="#F36F56"/>
</linearGradient>
<linearGradient id="paint21_linear_673_1024" x1="41.9971" y1="106.401" x2="45.6134" y2="92.659" gradientUnits="userSpaceOnUse">
<stop stop-color="#444B8C"/>
<stop offset="0.9964" stop-color="#3E4177"/>
</linearGradient>
<linearGradient id="paint22_linear_673_1024" x1="54.0427" y1="101.708" x2="41.4536" y2="95.2345" gradientUnits="userSpaceOnUse">
<stop stop-color="#FFC444"/>
<stop offset="0.9964" stop-color="#F36F56"/>
</linearGradient>
<linearGradient id="paint23_linear_673_1024" x1="78.59" y1="117.587" x2="198.372" y2="117.587" gradientUnits="userSpaceOnUse">
<stop stop-color="#311944"/>
<stop offset="1" stop-color="#893976"/>
</linearGradient>
<linearGradient id="paint24_linear_673_1024" x1="151.413" y1="321.534" x2="140.701" y2="107.189" gradientUnits="userSpaceOnUse">
<stop offset="0.003597" stop-color="#F36F56"/>
<stop offset="1" stop-color="#FFC444"/>
</linearGradient>
<linearGradient id="paint25_linear_673_1024" x1="94.7482" y1="106.311" x2="180.93" y2="106.311" gradientUnits="userSpaceOnUse">
<stop offset="0.003597" stop-color="#F36F56"/>
<stop offset="1" stop-color="#FFC444"/>
</linearGradient>
<linearGradient id="paint26_linear_673_1024" x1="91.7017" y1="125.884" x2="177.817" y2="125.884" gradientUnits="userSpaceOnUse">
<stop offset="0.003597" stop-color="#F36F56"/>
<stop offset="1" stop-color="#FFC444"/>
</linearGradient>
<linearGradient id="paint27_linear_673_1024" x1="134.029" y1="133.111" x2="119.514" y2="239.438" gradientUnits="userSpaceOnUse">
<stop offset="0.003597" stop-color="#F36F56"/>
<stop offset="1" stop-color="#FFC444"/>
</linearGradient>
<linearGradient id="paint28_linear_673_1024" x1="140.362" y1="23.0784" x2="143.443" y2="129.09" gradientUnits="userSpaceOnUse">
<stop offset="0.003597" stop-color="#F36F56"/>
<stop offset="1" stop-color="#FFC444"/>
</linearGradient>
</defs>
</svg>