<svg width="1280" height="715" viewBox="0 0 1280 715" fill="none" xmlns="http://www.w3.org/2000/svg">
<rect x="-6" width="1284" height="686" fill="#143C89"/>
<path d="M1279 686C1288.39 686 1296 678.389 1296 669V221.241C1296 207.188 1279.89 199.221 1268.68 207.695C965.25 437.062 774.295 564.409 419.865 686H1279Z" fill="white"/>
<path d="M-123.961 611.521C-135.266 606.585 -148 614.807 -148 627.142V669C-148 678.389 -140.389 686 -131 686H122.412C12.009 664.569 -45.0137 645.995 -123.961 611.521Z" fill="white"/>
<path d="M1288.76 280.103C1293.22 276.916 1296 271.67 1296 266.186V191.618C1296 177.68 1279.88 169.855 1268.63 178.082C649.078 631.1 337.7 755.361 -99.8667 632.569C335.506 786.142 623.522 755.072 1288.76 280.103Z" fill="#F4F5F9"/>
</svg>
