<?xml version='1.0' encoding='utf-8'?>
<!DOCTYPE svg PUBLIC '-//W3C//DTD SVG 1.1//EN' 'http://www.w3.org/Graphics/SVG/1.1/DTD/svg11.dtd'>
<!-- Uploaded to: SVG Repo, www.svgrepo.com, Generator: SVG Repo Mixer Tools -->
<svg fill="#000000" height="800px" width="800px" version="1.1" xmlns="http://www.w3.org/2000/svg" viewBox="0 0 512 512" xmlns:xlink="http://www.w3.org/1999/xlink" enable-background="new 0 0 512 512">
  <g>
    <g>
      <g>
        <path d="m299.6,13.4c-6.6-3.5-14.6-3.2-20.9,1l-166.8,110.4h-80.4c-11.3,0-20.4,9.1-20.4,20.4v221.6c0,11.3 9.1,20.4 20.4,20.4h80.4l166.8,110.4c10.4,5.7 17.9,2.6 20.9,1 6.6-3.6 10.8-10.5 10.8-18v-449.2c-5.68434e-14-7.5-4.2-14.5-10.8-18zm-247.7,152.2h43.7v180.8h-43.7v-180.8zm217.6,277l-133.1-88.1v-197l133.1-88.1v373.2z"/>
        <path d="m446.3,121.2c-7.9-8.1-20.9-8.2-28.9-0.3-8,7.9-8.2,20.8-0.3,28.9 57.5,58.5 57.5,153.8 0,212.3-7.9,8-8.5,21.7 0.2,28.9 10.5,8.6 24.9,3.8 28.9-0.2 73.1-74.3 73.1-195.3 0.1-269.6z"/>
        <path d="m383.3,185.3c-7.9-8-20.9-8.2-28.9-0.3-8,7.9-8.2,20.8-0.3,28.9 22.8,23.2 22.8,61 0,84.2-7.9,8-8.5,21.7 0.3,28.9 11.1,9.1 24.9,3.8 28.9-0.3 38.3-39 38.3-102.4 0-141.4z"/>
      </g>
    </g>
  </g>
</svg>